<?xml version="1.0" encoding="iso-8859-1"?>
<!-- Generator: Adobe Illustrator 21.0.0, SVG Export Plug-In . SVG Version: 6.00 Build 0)  -->
<svg version="1.1" id="Capa_1" xmlns="http://www.w3.org/2000/svg" xmlns:xlink="http://www.w3.org/1999/xlink" x="0px" y="0px"
	 viewBox="0 0 512 512" style="enable-background:new 0 0 512 512;" xml:space="preserve">
<g>
	<g>
		<g>
			<path d="M77.65,322.231c-2.128-2.085-5.048-3.158-8.021-2.947s-5.711,1.687-7.522,4.053l-10.633,13.806l47.406,46.089
				c3.551,3.534,3.597,9.268,0.102,12.858c-3.495,3.59-9.228,3.699-12.856,0.244l-53.093-51.648
				c-0.101-0.101-0.21-0.192-0.302-0.302l-9.527-9.225c-1.761-1.726-2.75-4.09-2.743-6.555v-122.35
				c-0.154-5.501-4.739-9.836-10.24-9.682C4.73,196.433,0.159,200.762,0,206.254v135.15c-0.013,13.704,5.116,26.914,14.373,37.019
				l60.681,66.368c1.541,1.686,2.396,3.887,2.395,6.171v47.323h68.837v-86.171c-0.042-14.802-6.027-28.967-16.613-39.314
				L77.65,322.231z"/>
			<path d="M509.102,199.497c-4.148-3.777-10.489-3.777-14.638,0c-1.848,1.762-2.895,4.203-2.898,6.757v122.35
				c0.007,2.466-0.982,4.829-2.743,6.555l-9.554,9.262l-0.302,0.293l-53.102,51.63c-2.337,2.31-5.734,3.188-8.898,2.3
				c-3.164-0.888-5.608-3.406-6.401-6.594c-0.794-3.189,0.185-6.558,2.563-8.826l47.387-46.08l-10.688-13.824
				c-1.808-2.363-4.547-3.832-7.515-4.032c-0.247,0-0.503,0-0.759,0c-2.708-0.004-5.309,1.056-7.241,2.953l-52.005,50.569
				c-10.608,10.326-16.593,24.501-16.594,39.305v86.171h68.837v-47.323c0-2.284,0.854-4.486,2.395-6.171l60.681-66.368
				C506.873,368.311,512,355.105,512,341.403v-135.15C511.992,203.701,510.946,201.262,509.102,199.497z"/>
			<path d="M150.51,233.838c33.753,12.413,69.536,18.38,105.49,17.591c35.938,0.79,71.705-5.171,105.445-17.573
				c19.867-8.21,31.698-18.725,31.698-28.142V163.73c-7.576,5.697-15.877,10.359-24.686,13.861
				c-35.963,13.326-74.113,19.765-112.457,18.981c-38.367,0.786-76.539-5.66-112.521-18.999c-8.785-3.498-17.065-8.15-24.622-13.833
				v41.975C118.857,215.131,130.688,225.646,150.51,233.838z M137.874,202.24c0.464-1.108,1.113-2.128,1.92-3.017
				c2.629-2.594,6.561-3.352,9.966-1.92c1.119,0.442,2.143,1.094,3.017,1.92c0.807,0.889,1.456,1.91,1.92,3.017
				c0.469,1.099,0.717,2.28,0.731,3.474c-0.016,0.613-0.077,1.224-0.183,1.829c-0.1,0.573-0.284,1.128-0.549,1.646
				c-0.2,0.583-0.477,1.136-0.823,1.646l-1.097,1.371c-0.889,0.807-1.91,1.456-3.017,1.92c-1.099,0.468-2.28,0.717-3.474,0.731
				c-2.42-0.035-4.738-0.982-6.491-2.651l-1.097-1.371c-0.346-0.51-0.623-1.063-0.823-1.646c-0.264-0.518-0.449-1.073-0.549-1.646
				c-0.106-0.604-0.167-1.215-0.183-1.829C137.157,204.52,137.406,203.339,137.874,202.24z"/>
			<path d="M150.51,160.695c33.753,12.413,69.536,18.38,105.49,17.591c35.938,0.79,71.705-5.171,105.445-17.573
				c19.867-8.21,31.698-18.725,31.698-28.142V90.633C365.23,112.064,309.495,123.429,256,123.429s-109.23-11.365-137.143-32.795
				v41.938C118.857,141.989,130.688,152.503,150.51,160.695z M137.874,129.097c0.464-1.108,1.113-2.128,1.92-3.017
				c2.629-2.594,6.561-3.352,9.966-1.92c1.119,0.442,2.143,1.094,3.017,1.92c0.807,0.889,1.456,1.91,1.92,3.017
				c0.469,1.099,0.717,2.279,0.731,3.474c-0.016,0.613-0.077,1.224-0.183,1.829c-0.1,0.573-0.284,1.128-0.549,1.646
				c-0.2,0.583-0.477,1.136-0.823,1.646l-1.097,1.371c-0.889,0.807-1.91,1.456-3.017,1.92c-1.099,0.469-2.28,0.717-3.474,0.731
				c-2.42-0.035-4.738-0.982-6.491-2.651l-1.097-1.371c-0.346-0.509-0.623-1.063-0.823-1.646c-0.264-0.518-0.449-1.073-0.549-1.646
				c-0.106-0.604-0.167-1.215-0.183-1.829C137.157,131.377,137.406,130.196,137.874,129.097z"/>
			<path d="M256,105.143c78.491,0,137.143-24.137,137.143-45.714S334.491,13.714,256,13.714S118.857,37.851,118.857,59.429
				S177.509,105.143,256,105.143z M289.17,32.649c2.253-0.904,4.772-0.875,7.003,0.08s3.991,2.758,4.892,5.012
				c0.901,2.251,0.871,4.769-0.084,6.998c-0.955,2.229-2.757,3.987-5.008,4.888l-91.429,36.571
				c-1.082,0.431-2.236,0.654-3.401,0.658c-4.389,0.008-8.164-3.102-8.995-7.412s1.517-8.601,5.594-10.225L289.17,32.649z
				 M161.17,50.935l45.714-18.286c4.691-1.878,10.016,0.402,11.895,5.093c1.878,4.691-0.402,10.016-5.093,11.895l-45.714,18.286
				c-1.083,0.428-2.237,0.648-3.401,0.649c-4.388,0.008-8.164-3.102-8.995-7.412C154.745,56.851,157.093,52.559,161.17,50.935z"/>
			<path d="M393.143,278.857v-41.984c-7.576,5.697-15.877,10.359-24.686,13.861C332.494,264.06,294.345,270.498,256,269.714
				c-38.367,0.786-76.539-5.66-112.521-18.999c-8.785-3.498-17.065-8.15-24.622-13.833v41.975
				c0,21.577,58.651,45.714,137.143,45.714S393.143,300.434,393.143,278.857z M155.246,280.686c-0.1,0.573-0.284,1.128-0.549,1.646
				c-0.2,0.583-0.477,1.136-0.823,1.646l-1.097,1.371c-0.889,0.807-1.91,1.456-3.017,1.92c-1.099,0.469-2.28,0.717-3.474,0.731
				c-2.42-0.035-4.738-0.982-6.491-2.651l-1.097-1.371c-0.346-0.51-0.623-1.063-0.823-1.646c-0.264-0.518-0.449-1.073-0.549-1.646
				c-0.106-0.604-0.167-1.215-0.183-1.829c0.014-1.195,0.263-2.375,0.731-3.474c0.464-1.108,1.113-2.128,1.92-3.017
				c2.629-2.594,6.561-3.352,9.966-1.92c1.119,0.442,2.143,1.094,3.017,1.92c0.807,0.889,1.456,1.91,1.92,3.017
				c0.469,1.099,0.717,2.279,0.731,3.474C155.413,279.47,155.352,280.082,155.246,280.686z"/>
		</g>
	</g>
</g>
<g>
</g>
<g>
</g>
<g>
</g>
<g>
</g>
<g>
</g>
<g>
</g>
<g>
</g>
<g>
</g>
<g>
</g>
<g>
</g>
<g>
</g>
<g>
</g>
<g>
</g>
<g>
</g>
<g>
</g>
</svg>
