<svg id="Layer_5" enable-background="new 0 0 64 64" height="512" viewBox="0 0 64 64" width="512" xmlns="http://www.w3.org/2000/svg"><g><path d="m35.062 33.477c.577.323 1.232.523 1.938.523 1.32 0 2.482-.65 3.211-1.638l6.878 2.752c-.051.288-.089.582-.089.886 0 2.757 2.243 5 5 5s5-2.243 5-5c0-2.414-1.721-4.434-4-4.899v-8.151c-.33.03-.662.05-1 .05s-.67-.021-1-.05v8.152c-1.322.269-2.452 1.064-3.171 2.154l-6.88-2.752c.021-.168.051-.332.051-.504 0-2.206-1.794-4-4-4s-4 1.794-4 4c0 .773.23 1.489.612 2.101l-4.612 4.832v2.896z"/><path d="m52 21c4.962 0 9-4.038 9-9s-4.038-9-9-9-9 4.038-9 9 4.038 9 9 9zm-4-7h2v1h3c.551 0 1-.449 1-1s-.449-1-1-1h-2c-1.654 0-3-1.346-3-3s1.346-3 3-3v-2h2v2h3v3h-2v-1h-3c-.551 0-1 .449-1 1s.449 1 1 1h2c1.654 0 3 1.346 3 3s-1.346 3-3 3v2h-2v-2h-3z"/><path d="m23 35h2.001v2h-2.001z"/><path d="m23 27h2.001v2h-2.001z"/><path d="m7 13h18.001v8h-18.001z"/><path d="m15 35h2.001v2h-2.001z"/><path d="m25.786 47c.626 1.219 1.033 2.566 1.163 3.995h23.182l-1.333-1.998 1.332-1.997z"/><path d="m7 27h2.001v2h-2.001z"/><path d="m15 27h2.001v2h-2.001z"/><path d="m16 43c-4.962 0-9 4.037-9 9s4.038 9 9 9 9-4.037 9-9-4.038-9-9-9zm4 7h-2v-1h-3c-.551 0-1 .448-1 1s.449 1 1 1h2c1.654 0 3 1.346 3 3s-1.346 3-3 3v2h-2v-2h-3v-3h2v1h3c.551 0 1-.448 1-1s-.449-1-1-1h-2c-1.654 0-3-1.346-3-3s1.346-3 3-3v-2h2v2h3z"/><path d="m24.479 45h4.521v-5.171l-4.725 4.95c.066.075.14.144.204.221z"/><path d="m5 45v-2c0-1.103.897-2 2-2h2c.849 0 1.571.534 1.861 1.281 1.535-.815 3.283-1.281 5.139-1.281 2.582 0 4.956.897 6.835 2.392l6.165-6.459v-24.933c0-1.654-1.346-3-3-3h-20c-1.654 0-3 1.346-3 3v34c0 1.463 1.054 2.68 2.441 2.943.211-.728.491-1.425.84-2.083-.747-.289-1.281-1.011-1.281-1.86zm14-8c0 1.103-.897 2-2 2h-2c-1.103 0-2-.897-2-2v-2c0-1.103.897-2 2-2h2c1.103 0 2 .897 2 2zm0-8c0 1.103-.897 2-2 2h-2c-1.103 0-2-.897-2-2v-2c0-1.103.897-2 2-2h2c1.103 0 2 .897 2 2zm8 8c0 1.103-.897 2-2 2h-2c-1.103 0-2-.897-2-2v-2c0-1.103.897-2 2-2h2c1.103 0 2 .897 2 2zm0-8c0 1.103-.897 2-2 2h-2c-1.103 0-2-.897-2-2v-2c0-1.103.897-2 2-2h2c1.103 0 2 .897 2 2zm-22-16c0-1.103.897-2 2-2h18c1.103 0 2 .897 2 2v8c0 1.103-.897 2-2 2h-18c-1.103 0-2-.897-2-2zm0 14c0-1.103.897-2 2-2h2c1.103 0 2 .897 2 2v2c0 1.103-.897 2-2 2h-2c-1.103 0-2-.897-2-2zm0 8c0-1.103.897-2 2-2h2c1.103 0 2 .897 2 2v2c0 1.103-.897 2-2 2h-2c-1.103 0-2-.897-2-2z"/><path d="m7 45h.521c.445-.538.94-1.033 1.479-1.479v-.521h-2z"/><path d="m60.658 51.447-8.316-4.158-1.14 1.708 2 2.998-2 3.002 1.141 1.713 8.315-4.158c.211-.105.342-.317.342-.552s-.131-.447-.342-.553z"/><path d="m50.132 52.995h-23.182c-.129 1.432-.537 2.783-1.164 4.005h24.346l-1.334-2.003z"/><path d="m7 35h2.001v2h-2.001z"/></g></svg>